<svg width="1440" height="88" viewBox="0 0 1440 88" fill="none" xmlns="http://www.w3.org/2000/svg">
<g filter="url(#filter0_b)">
<rect width="1440" height="88" fill="black" fill-opacity="0.03"/>
<path d="M159.013 36.3222H149.292C149.025 36.3222 148.936 36.4116 148.936 36.6798V51.3726C148.936 51.6409 149.025 51.7302 149.292 51.7302H159.032C159.299 51.7302 159.353 51.6409 159.353 51.3726V50.568C159.353 50.2983 159.28 50.2089 159.032 50.2089H150.662V44.7152H158.622C158.889 44.7152 158.978 44.6258 158.978 44.3576V43.5514C158.978 43.2832 158.889 43.1938 158.622 43.1938H150.662V37.8435H159.013C159.263 37.8435 159.334 37.7541 159.334 37.4859V36.6798C159.353 36.4116 159.263 36.3222 159.013 36.3222ZM180.273 36.3222H179.223C178.956 36.3222 178.867 36.3946 178.867 36.6813V48.4208L168.663 36.1973C168.575 36.0894 168.504 36.0355 168.379 36.0355H168.271C168.112 36.0355 168.077 36.054 168.077 36.2158V37.3965L169.803 39.5252L179.971 51.8212C180.094 51.9445 180.185 52 180.291 52H180.399C180.522 52 180.576 51.9815 180.576 51.8212V36.6613C180.612 36.3931 180.541 36.3222 180.273 36.3222ZM195.943 43.2123C193.538 42.9071 191.508 42.4416 191.508 40.6351C191.508 39.4898 192.239 37.6293 195.551 37.6293C197.082 37.6293 198.525 38.1287 199.931 39.0782C200.02 39.1491 200.091 39.1676 200.126 39.1676C200.234 39.1676 200.322 39.0782 200.411 38.9164L200.821 38.2366C200.909 38.0208 200.945 37.879 200.714 37.7526C199.058 36.7337 197.58 36.0879 195.337 36.0879C191.098 36.0879 189.817 38.9888 189.817 40.689C189.817 43.6054 192.595 44.3391 194.981 44.6613C197.848 45.0543 199.485 45.6462 199.485 47.4713C199.485 49.7619 197.384 50.4231 195.373 50.4231C193.734 50.4231 191.92 49.9222 190.511 48.9557C190.44 48.9002 190.353 48.8688 190.263 48.8663C190.155 48.8663 190.084 48.9387 189.995 49.0821L189.586 49.7788C189.461 50.0301 189.461 50.138 189.675 50.2628C191.331 51.4266 193.272 51.963 195.587 51.963C199.343 51.963 201.159 49.7619 201.159 47.4158C201.178 44.464 198.773 43.5869 195.943 43.2123ZM211.541 36.3222H210.489C210.223 36.3222 210.135 36.4116 210.135 36.6798V51.3726C210.135 51.6409 210.223 51.7302 210.489 51.7302H211.541C211.807 51.7302 211.861 51.6409 211.861 51.3726V36.6798C211.878 36.4116 211.807 36.3222 211.541 36.3222ZM245.834 36.3222H244.783C244.516 36.3222 244.428 36.4116 244.428 36.6798V51.3726C244.428 51.6409 244.516 51.7302 244.783 51.7302H245.834C246.101 51.7302 246.155 51.6409 246.155 51.3726V36.6798C246.155 36.4116 246.082 36.3222 245.834 36.3222ZM262.873 36.037C258.565 36.037 255.04 39.6516 255.04 44.0185C255.04 48.4023 258.565 52 262.873 52C267.183 51.9985 270.708 48.3838 270.708 44.0185C270.708 39.6516 267.183 36.037 262.873 36.037ZM262.873 50.4601C259.454 50.4601 256.785 47.311 256.785 44.017C256.785 40.689 259.456 37.5753 262.873 37.5753C266.327 37.5753 268.963 40.689 268.963 44.0185C268.945 47.311 266.327 50.4617 262.875 50.4617L262.873 50.4601ZM168.095 51.4081C168.095 51.6408 168.166 51.7133 168.398 51.7133H169.27C169.501 51.7133 169.572 51.6408 169.572 51.4081V41.3503L168.094 39.5252V51.4096L168.095 51.4081ZM221.831 51.6763H222.882C223.149 51.6763 223.238 51.6054 223.238 51.3187V39.5792L233.441 51.8027C233.531 51.9106 233.601 51.963 233.726 51.963H233.834C233.993 51.963 234.028 51.9461 234.028 51.7842V50.6035L232.302 48.4732L222.116 36.1788C221.993 36.054 221.904 36 221.796 36H221.691C221.568 36 221.514 36.0185 221.514 36.1788V51.3372C221.514 51.6239 221.584 51.6763 221.833 51.6763H221.831ZM234.028 36.5904C234.028 36.3592 233.958 36.2867 233.726 36.2867H232.854C232.623 36.2867 232.55 36.3576 232.55 36.5904V46.6482L234.03 48.4732V36.5904H234.028Z" fill="white"/>
<path opacity="0.5" d="M135.646 56.1775C135.646 56.1775 127.754 54.0743 120.594 55.2891L119.494 50.0865C119.494 50.0865 129.179 49.5065 134.798 50.8844L135.646 56.1775Z" fill="url(#paint0_linear)"/>
<path opacity="0.5" d="M136.936 46.3704C136.936 46.3704 126.627 43.6239 117.267 45.2103L115.833 38.4026C115.833 38.4026 128.485 37.6414 135.826 39.4456L136.935 46.3704H136.936Z" fill="url(#paint1_linear)"/>
<path d="M117.113 35.5567L133.364 42.9617C136.142 44.3942 136.936 46.3702 136.936 46.3702L136.908 44.5746L136.872 41.8921L136.863 41.5384C136.808 38.1486 134.798 35.0945 131.705 33.7346L116.779 27.1462C112.803 25.2234 112 24 112 24L112.018 25.0422L112.045 26.9183L112.054 27.7981C112.077 29.4375 112.564 31.0367 113.46 32.4101C114.355 33.7834 115.622 34.8746 117.113 35.5567Z" fill="white"/>
<path d="M119.9 47.5849L132.813 53.4667C135.023 54.6088 135.655 56.1772 135.655 56.1772L135.636 54.754L135.601 52.6235V52.3424C135.583 51.0257 135.188 49.7416 134.463 48.6427C133.737 47.5439 132.711 46.6765 131.507 46.1437L119.648 40.913C116.482 39.3906 115.842 38.4116 115.842 38.4116L115.85 39.2454L115.869 40.7319L115.878 41.4298C115.896 42.7314 116.283 44.0011 116.996 45.0907C117.708 46.1804 118.715 47.0451 119.9 47.5841V47.5849Z" fill="white"/>
<path d="M122.569 57.2386L132.309 61.8697C133.978 62.7675 134.446 64.0002 134.446 64.0002L134.428 62.876L134.401 61.1991V60.9727C134.365 58.8515 133.166 56.9481 131.308 56.0964L122.37 51.9805C119.98 50.7837 119.503 50.0132 119.503 50.0132L119.511 50.6658L119.529 51.8353L119.538 52.3795C119.565 54.4819 120.747 56.3767 122.568 57.2378L122.569 57.2386Z" fill="white"/>
<path opacity="0.9" d="M432.148 40.9567H433.736C433.688 39.2095 432.143 37.9418 429.927 37.9418C427.738 37.9418 426.06 39.1935 426.06 41.0739C426.06 42.592 427.147 43.4815 428.899 43.9556L430.188 44.3072C431.355 44.6161 432.255 44.9996 432.255 45.9691C432.255 47.0344 431.238 47.7376 429.837 47.7376C428.569 47.7376 427.514 47.1729 427.418 45.9851H425.767C425.874 47.9613 427.402 49.1811 429.847 49.1811C432.409 49.1811 433.885 47.8335 433.885 45.9851C433.885 44.0195 432.132 43.2578 430.748 42.9169L429.682 42.6399C428.83 42.4215 427.695 42.022 427.701 40.978C427.701 40.0511 428.548 39.364 429.89 39.364C431.142 39.364 432.031 39.9499 432.148 40.9567ZM439.17 49.1651C441.477 49.1651 442.984 47.4766 442.984 44.9464C442.984 42.4002 441.477 40.7116 439.17 40.7116C436.864 40.7116 435.356 42.4002 435.356 44.9464C435.356 47.4766 436.864 49.1651 439.17 49.1651ZM439.176 47.8281C437.668 47.8281 436.965 46.5124 436.965 44.9411C436.965 43.375 437.668 42.0433 439.176 42.0433C440.672 42.0433 441.376 43.375 441.376 44.9411C441.376 46.5124 440.672 47.8281 439.176 47.8281ZM446.355 38.0909H444.762V49H446.355V38.0909ZM453.68 45.6069C453.686 46.9972 452.652 47.6577 451.757 47.6577C450.772 47.6577 450.09 46.9439 450.09 45.8306V40.8182H448.497V46.0224C448.497 48.0518 449.611 49.1065 451.182 49.1065C452.413 49.1065 453.249 48.4567 453.627 47.5831H453.712V49H455.278V40.8182H453.68V45.6069ZM461.296 49.1438C462.985 48.984 464.066 47.8814 464.226 46.4112H462.676C462.473 47.2955 461.786 47.8175 460.875 47.8175C459.528 47.8175 458.659 46.6935 458.659 44.9091C458.659 43.1566 459.544 42.054 460.875 42.054C461.887 42.054 462.505 42.6932 462.676 43.4602H464.226C464.055 41.8089 462.708 40.7116 460.849 40.7116C458.542 40.7116 457.051 42.4482 457.051 44.9464C457.051 47.1942 458.244 48.8509 460.257 49.1225L460.071 50.0121C460.854 50.0866 461.195 50.2411 461.19 50.7152C461.184 51.1893 460.678 51.3917 459.943 51.3917L459.975 52.2812C461.552 52.2812 462.409 51.6314 462.404 50.6673C462.404 49.8629 461.861 49.4901 461.248 49.3942L461.296 49.1438ZM469.375 49.1651C471.682 49.1651 473.189 47.4766 473.189 44.9464C473.189 42.4002 471.682 40.7116 469.375 40.7116C467.069 40.7116 465.562 42.4002 465.562 44.9464C465.562 47.4766 467.069 49.1651 469.375 49.1651ZM469.381 47.8281C467.873 47.8281 467.17 46.5124 467.17 44.9411C467.17 43.375 467.873 42.0433 469.381 42.0433C470.878 42.0433 471.581 43.375 471.581 44.9411C471.581 46.5124 470.878 47.8281 469.381 47.8281ZM467.772 39.8274C467.772 39.364 468.054 39.0178 468.449 39.0178C469.205 39.0178 469.386 39.7422 470.393 39.7422C471.325 39.7369 472.049 39.0178 472.049 37.8299L471 37.7607C470.995 38.2241 470.712 38.5756 470.302 38.5756C469.589 38.5756 469.226 37.8565 468.358 37.8565C467.421 37.8565 466.701 38.6183 466.701 39.7955L467.772 39.8274ZM478.493 49.1651C480.278 49.1651 481.54 48.2862 481.903 46.9545L480.395 46.6829C480.107 47.4553 479.415 47.8494 478.509 47.8494C477.146 47.8494 476.23 46.9652 476.187 45.3885H482.004V44.8239C482.004 41.8675 480.235 40.7116 478.382 40.7116C476.102 40.7116 474.6 42.4482 474.6 44.9624C474.6 47.5032 476.08 49.1651 478.493 49.1651ZM476.192 44.1953C476.256 43.0341 477.098 42.0273 478.392 42.0273C479.628 42.0273 480.438 42.9435 480.443 44.1953H476.192ZM489.902 42.8157C489.572 41.5426 488.576 40.7116 486.807 40.7116C484.959 40.7116 483.648 41.6864 483.648 43.1353C483.648 44.2965 484.351 45.0689 485.886 45.4098L487.271 45.7134C488.059 45.8892 488.426 46.2408 488.426 46.7521C488.426 47.386 487.75 47.8814 486.706 47.8814C485.752 47.8814 485.14 47.4712 484.948 46.6669L483.409 46.9013C483.675 48.3501 484.879 49.1651 486.717 49.1651C488.693 49.1651 490.062 48.1158 490.062 46.6349C490.062 45.479 489.327 44.7653 487.824 44.419L486.525 44.1207C485.625 43.9077 485.236 43.604 485.241 43.0501C485.236 42.4215 485.918 41.9741 486.823 41.9741C487.814 41.9741 488.272 42.5227 488.458 43.0714L489.902 42.8157Z" fill="white"/>
<path d="M508.848 46.6432C508.456 47.2699 507.544 47.2699 507.152 46.6432L503.956 41.53C503.54 40.864 504.019 40 504.804 40L511.196 40C511.981 40 512.46 40.864 512.044 41.53L508.848 46.6432Z" fill="#99F3F5"/>
<path opacity="0.9" d="M554.199 49H555.844V45.1648H558.082C560.612 45.1648 561.864 43.636 561.864 41.6225C561.864 39.6143 560.623 38.0909 558.087 38.0909H554.199V49ZM555.844 43.7692V39.5025H557.911C559.541 39.5025 560.207 40.3867 560.207 41.6225C560.207 42.8583 559.541 43.7692 557.933 43.7692H555.844ZM563.665 49H565.258V44.0036C565.258 42.9329 566.084 42.1605 567.213 42.1605C567.543 42.1605 567.916 42.2191 568.044 42.2564V40.733C567.884 40.7116 567.57 40.6957 567.367 40.6957C566.409 40.6957 565.588 41.239 565.29 42.1179H565.205V40.8182H563.665V49ZM572.656 49.1651C574.44 49.1651 575.702 48.2862 576.065 46.9545L574.557 46.6829C574.27 47.4553 573.577 47.8494 572.672 47.8494C571.308 47.8494 570.392 46.9652 570.349 45.3885H576.166V44.8239C576.166 41.8675 574.397 40.7116 572.544 40.7116C570.264 40.7116 568.762 42.4482 568.762 44.9624C568.762 47.5032 570.243 49.1651 572.656 49.1651ZM570.354 44.1953C570.418 43.0341 571.26 42.0273 572.554 42.0273C573.79 42.0273 574.6 42.9435 574.605 44.1953H570.354ZM581.811 49.1438C583.499 48.984 584.581 47.8814 584.741 46.4112H583.19C582.988 47.2955 582.301 47.8175 581.39 47.8175C580.042 47.8175 579.174 46.6935 579.174 44.9091C579.174 43.1566 580.058 42.054 581.39 42.054C582.402 42.054 583.02 42.6932 583.19 43.4602H584.741C584.57 41.8089 583.222 40.7116 581.363 40.7116C579.057 40.7116 577.565 42.4482 577.565 44.9464C577.565 47.1942 578.759 48.8509 580.772 49.1225L580.586 50.0121C581.369 50.0866 581.71 50.2411 581.704 50.7152C581.699 51.1893 581.193 51.3917 580.458 51.3917L580.49 52.2812C582.066 52.2812 582.924 51.6314 582.919 50.6673C582.919 49.8629 582.375 49.4901 581.763 49.3942L581.811 49.1438ZM589.89 49.1651C592.197 49.1651 593.704 47.4766 593.704 44.9464C593.704 42.4002 592.197 40.7116 589.89 40.7116C587.584 40.7116 586.076 42.4002 586.076 44.9464C586.076 47.4766 587.584 49.1651 589.89 49.1651ZM589.895 47.8281C588.388 47.8281 587.685 46.5124 587.685 44.9411C587.685 43.375 588.388 42.0433 589.895 42.0433C591.392 42.0433 592.095 43.375 592.095 44.9411C592.095 46.5124 591.392 47.8281 589.895 47.8281ZM601.613 42.8157C601.283 41.5426 600.286 40.7116 598.518 40.7116C596.67 40.7116 595.359 41.6864 595.359 43.1353C595.359 44.2965 596.062 45.0689 597.597 45.4098L598.981 45.7134C599.77 45.8892 600.137 46.2408 600.137 46.7521C600.137 47.386 599.461 47.8814 598.417 47.8814C597.463 47.8814 596.851 47.4712 596.659 46.6669L595.12 46.9013C595.386 48.3501 596.59 49.1651 598.427 49.1651C600.404 49.1651 601.773 48.1158 601.773 46.6349C601.773 45.479 601.038 44.7653 599.535 44.419L598.236 44.1207C597.335 43.9077 596.947 43.604 596.952 43.0501C596.947 42.4215 597.628 41.9741 598.534 41.9741C599.525 41.9741 599.983 42.5227 600.169 43.0714L601.613 42.8157Z" fill="white"/>
<path opacity="0.9" d="M752.199 49H756.38C758.915 49 760.061 47.7376 760.061 46.065C760.061 44.3764 758.878 43.4229 757.797 43.3643V43.2578C758.798 43.0021 759.635 42.3203 759.635 40.9567C759.635 39.3427 758.516 38.0909 756.194 38.0909H752.199V49ZM753.844 47.5884V44.0941H756.279C757.6 44.0941 758.425 44.9464 758.425 45.9851C758.425 46.9013 757.802 47.5884 756.22 47.5884H753.844ZM753.844 42.8104V39.4918H756.092C757.397 39.4918 758.021 40.179 758.021 41.0845C758.021 42.1392 757.158 42.8104 756.05 42.8104H753.844ZM763.478 38.0909H761.885V49H763.478V38.0909ZM769.067 49.1651C771.373 49.1651 772.881 47.4766 772.881 44.9464C772.881 42.4002 771.373 40.7116 769.067 40.7116C766.76 40.7116 765.253 42.4002 765.253 44.9464C765.253 47.4766 766.76 49.1651 769.067 49.1651ZM769.072 47.8281C767.565 47.8281 766.862 46.5124 766.862 44.9411C766.862 43.375 767.565 42.0433 769.072 42.0433C770.569 42.0433 771.272 43.375 771.272 44.9411C771.272 46.5124 770.569 47.8281 769.072 47.8281ZM778.089 52.2386C780.172 52.2386 781.78 51.2852 781.78 49.1811V40.8182H780.22V42.1445H780.102C779.82 41.6385 779.256 40.7116 777.732 40.7116C775.756 40.7116 774.302 42.2724 774.302 44.8771C774.302 47.4872 775.788 48.8775 777.721 48.8775C779.224 48.8775 779.804 48.0305 780.092 47.5085H780.193V49.1172C780.193 50.4009 779.314 50.9549 778.105 50.9549C776.779 50.9549 776.262 50.2891 775.98 49.8203L774.611 50.3849C775.042 51.3864 776.134 52.2386 778.089 52.2386ZM778.073 47.5565C776.651 47.5565 775.91 46.4645 775.91 44.8558C775.91 43.2844 776.635 42.0646 778.073 42.0646C779.463 42.0646 780.209 43.1992 780.209 44.8558C780.209 46.5444 779.447 47.5565 778.073 47.5565Z" fill="white"/>
<path opacity="0.9" d="M645.12 49L646.121 46.1129H650.383L651.379 49H653.126L649.2 38.0909H647.299L643.373 49H645.12ZM646.601 44.728L648.21 40.0724H648.295L649.903 44.728H646.601ZM657.888 49.1651C659.822 49.1651 661.074 48.0039 661.249 46.4112H659.699C659.497 47.2955 658.81 47.8175 657.899 47.8175C656.551 47.8175 655.683 46.6935 655.683 44.9091C655.683 43.1566 656.567 42.054 657.899 42.054C658.911 42.054 659.529 42.6932 659.699 43.4602H661.249C661.079 41.8089 659.731 40.7116 657.872 40.7116C655.566 40.7116 654.074 42.4482 654.074 44.9464C654.074 47.4126 655.512 49.1651 657.888 49.1651ZM665.334 49.1811C666.687 49.1811 667.448 48.494 667.752 47.8814H667.816V49H669.371V43.5668C669.371 41.1857 667.496 40.7116 666.196 40.7116C664.716 40.7116 663.352 41.3082 662.819 42.7997L664.316 43.1406C664.551 42.56 665.147 42.0007 666.218 42.0007C667.246 42.0007 667.773 42.5387 667.773 43.4656V43.5028C667.773 44.0835 667.177 44.0728 665.706 44.2433C664.156 44.4244 662.569 44.8292 662.569 46.6882C662.569 48.2969 663.778 49.1811 665.334 49.1811ZM665.68 47.9027C664.78 47.9027 664.13 47.4979 664.13 46.7095C664.13 45.8572 664.886 45.5536 665.808 45.4311C666.324 45.3619 667.549 45.2234 667.778 44.9943V46.049C667.778 47.0185 667.006 47.9027 665.68 47.9027ZM674.555 49.1598C676.047 49.1598 676.633 48.2489 676.92 47.7269H677.054V49H678.609V38.0909H677.016V42.1445H676.92C676.633 41.6385 676.089 40.7116 674.566 40.7116C672.59 40.7116 671.136 42.2724 671.136 44.9251C671.136 47.5724 672.569 49.1598 674.555 49.1598ZM674.907 47.8015C673.485 47.8015 672.744 46.5497 672.744 44.9091C672.744 43.2844 673.469 42.0646 674.907 42.0646C676.297 42.0646 677.043 43.1992 677.043 44.9091C677.043 46.6296 676.281 47.8015 674.907 47.8015ZM684.408 49.1651C686.193 49.1651 687.455 48.2862 687.818 46.9545L686.31 46.6829C686.022 47.4553 685.33 47.8494 684.424 47.8494C683.061 47.8494 682.145 46.9652 682.102 45.3885H687.919V44.8239C687.919 41.8675 686.15 40.7116 684.297 40.7116C682.017 40.7116 680.515 42.4482 680.515 44.9624C680.515 47.5032 681.995 49.1651 684.408 49.1651ZM682.107 44.1953C682.171 43.0341 683.013 42.0273 684.307 42.0273C685.543 42.0273 686.353 42.9435 686.358 44.1953H682.107ZM689.686 49H691.279V43.9556C691.279 42.853 692.051 42.0859 692.956 42.0859C693.841 42.0859 694.453 42.6719 694.453 43.5614V49H696.041V43.7852C696.041 42.7997 696.643 42.0859 697.681 42.0859C698.523 42.0859 699.215 42.5547 699.215 43.6626V49H700.808V43.5135C700.808 41.6438 699.764 40.7116 698.283 40.7116C697.106 40.7116 696.222 41.2763 695.828 42.1499H695.742C695.385 41.255 694.634 40.7116 693.542 40.7116C692.461 40.7116 691.657 41.2496 691.316 42.1499H691.215V40.8182H689.686V49ZM703.657 52.0682C704.972 52.0682 705.803 51.381 706.277 50.092L709.66 40.8342L707.939 40.8182L705.867 47.1676H705.782L703.71 40.8182H702.005L704.999 49.1065L704.802 49.6499C704.397 50.7365 703.827 50.8271 702.953 50.5874L702.57 51.8924C702.762 51.9776 703.177 52.0682 703.657 52.0682Z" fill="white"/>
<path opacity="0.9" d="M833.259 41.6385C832.886 39.3054 831.059 37.9418 828.753 37.9418C825.93 37.9418 823.847 40.0565 823.847 43.5455C823.847 47.0344 825.919 49.1491 828.753 49.1491C831.15 49.1491 832.902 47.647 833.259 45.4897L831.597 45.4844C831.315 46.88 830.143 47.647 828.763 47.647C826.894 47.647 825.482 46.2141 825.482 43.5455C825.482 40.8981 826.888 39.4439 828.769 39.4439C830.159 39.4439 831.326 40.2269 831.597 41.6385H833.259ZM838.547 49.1651C840.854 49.1651 842.361 47.4766 842.361 44.9464C842.361 42.4002 840.854 40.7116 838.547 40.7116C836.241 40.7116 834.733 42.4002 834.733 44.9464C834.733 47.4766 836.241 49.1651 838.547 49.1651ZM838.553 47.8281C837.045 47.8281 836.342 46.5124 836.342 44.9411C836.342 43.375 837.045 42.0433 838.553 42.0433C840.049 42.0433 840.753 43.375 840.753 44.9411C840.753 46.5124 840.049 47.8281 838.553 47.8281ZM845.732 44.142C845.732 42.837 846.531 42.0913 847.639 42.0913C848.72 42.0913 849.375 42.7997 849.375 43.9876V49H850.968V43.7958C850.968 41.7717 849.855 40.7116 848.182 40.7116C846.952 40.7116 846.147 41.2816 845.769 42.1499H845.668V40.8182H844.139V49H845.732V44.142ZM856.923 40.8182H855.245V38.858H853.653V40.8182H852.454V42.0966H853.653V46.9279C853.647 48.4141 854.782 49.1332 856.039 49.1065C856.545 49.1012 856.886 49.0053 857.072 48.9361L856.785 47.6204C856.678 47.6417 856.481 47.6896 856.225 47.6896C855.709 47.6896 855.245 47.5192 855.245 46.5977V42.0966H856.923V40.8182ZM861.066 49.1811C862.419 49.1811 863.181 48.494 863.484 47.8814H863.548V49H865.104V43.5668C865.104 41.1857 863.229 40.7116 861.929 40.7116C860.448 40.7116 859.084 41.3082 858.552 42.7997L860.049 43.1406C860.283 42.56 860.88 42.0007 861.95 42.0007C862.978 42.0007 863.506 42.5387 863.506 43.4656V43.5028C863.506 44.0835 862.909 44.0728 861.439 44.2433C859.889 44.4244 858.301 44.8292 858.301 46.6882C858.301 48.2969 859.511 49.1811 861.066 49.1811ZM861.412 47.9027C860.512 47.9027 859.862 47.4979 859.862 46.7095C859.862 45.8572 860.619 45.5536 861.54 45.4311C862.057 45.3619 863.282 45.2234 863.511 44.9943V46.049C863.511 47.0185 862.739 47.9027 861.412 47.9027ZM871.044 40.8182H869.366V38.858H867.774V40.8182H866.575V42.0966H867.774V46.9279C867.768 48.4141 868.903 49.1332 870.16 49.1065C870.666 49.1012 871.007 49.0053 871.193 48.9361L870.906 47.6204C870.799 47.6417 870.602 47.6896 870.346 47.6896C869.83 47.6896 869.366 47.5192 869.366 46.5977V42.0966H871.044V40.8182ZM876.165 49.1651C878.471 49.1651 879.978 47.4766 879.978 44.9464C879.978 42.4002 878.471 40.7116 876.165 40.7116C873.858 40.7116 872.351 42.4002 872.351 44.9464C872.351 47.4766 873.858 49.1651 876.165 49.1651ZM876.17 47.8281C874.662 47.8281 873.959 46.5124 873.959 44.9411C873.959 43.375 874.662 42.0433 876.17 42.0433C877.667 42.0433 878.37 43.375 878.37 44.9411C878.37 46.5124 877.667 47.8281 876.17 47.8281Z" fill="white"/>
<path d="M1006.08 49H1013.21V47.3434H1008.05V44.3658H1012.8V42.7092H1008.05V39.7475H1013.17V38.0909H1006.08V49ZM1017.03 44.206C1017.03 43.0234 1017.74 42.3416 1018.76 42.3416C1019.76 42.3416 1020.35 42.9968 1020.35 44.0888V49H1022.28V43.7905C1022.29 41.8303 1021.17 40.7116 1019.48 40.7116C1018.26 40.7116 1017.41 41.2976 1017.04 42.2085H1016.95V40.8182H1015.1V49H1017.03V44.206ZM1028.33 40.8182H1026.71V38.858H1024.79V40.8182H1023.62V42.3097H1024.79V46.8587C1024.78 48.3981 1025.89 49.1545 1027.34 49.1119C1027.89 49.0959 1028.27 48.9893 1028.48 48.9201L1028.15 47.4126C1028.05 47.4393 1027.83 47.4872 1027.59 47.4872C1027.1 47.4872 1026.71 47.3168 1026.71 46.5391V42.3097H1028.33V40.8182ZM1029.94 49H1031.87V44.19C1031.87 43.1513 1032.65 42.4162 1033.71 42.4162C1034.04 42.4162 1034.44 42.4748 1034.61 42.5281V40.7543C1034.43 40.7223 1034.13 40.701 1033.91 40.701C1032.98 40.701 1032.19 41.2337 1031.9 42.1818H1031.81V40.8182H1029.94V49ZM1038.08 49.1651C1039.37 49.1651 1040.13 48.5632 1040.48 47.8761H1040.55V49H1042.4V43.5241C1042.4 41.3615 1040.64 40.7116 1039.08 40.7116C1037.36 40.7116 1036.04 41.4787 1035.61 42.9702L1037.41 43.2259C1037.6 42.6665 1038.15 42.1871 1039.09 42.1871C1039.98 42.1871 1040.47 42.6452 1040.47 43.4496V43.4815C1040.47 44.0355 1039.89 44.0621 1038.45 44.2166C1036.86 44.3871 1035.34 44.8612 1035.34 46.7042C1035.34 48.3129 1036.52 49.1651 1038.08 49.1651ZM1038.58 47.7482C1037.78 47.7482 1037.2 47.3807 1037.2 46.6722C1037.2 45.9318 1037.85 45.6229 1038.71 45.5004C1039.22 45.4311 1040.23 45.3033 1040.48 45.1009V46.065C1040.48 46.9759 1039.74 47.7482 1038.58 47.7482ZM1044.34 49H1046.27V44.19C1046.27 43.1513 1047.05 42.4162 1048.11 42.4162C1048.44 42.4162 1048.84 42.4748 1049.01 42.5281V40.7543C1048.83 40.7223 1048.53 40.701 1048.31 40.701C1047.38 40.701 1046.59 41.2337 1046.3 42.1818H1046.21V40.8182H1044.34V49Z" fill="white"/>
<line opacity="0.25" x1="929.5" y1="32" x2="929.5" y2="56" stroke="#99F3F5"/>
<rect opacity="0.5" x="1090.5" y="24.5" width="159" height="39" rx="19.5" stroke="white"/>
<path d="M1124.41 41.7717C1124.08 39.348 1122.21 37.9418 1119.8 37.9418C1116.95 37.9418 1114.8 40.0192 1114.8 43.5455C1114.8 47.0664 1116.92 49.1491 1119.8 49.1491C1122.39 49.1491 1124.11 47.4712 1124.41 45.3885L1122.42 45.3778C1122.17 46.6562 1121.13 47.3754 1119.82 47.3754C1118.05 47.3754 1116.79 46.049 1116.79 43.5455C1116.79 41.0845 1118.04 39.7156 1119.83 39.7156C1121.15 39.7156 1122.19 40.4666 1122.42 41.7717H1124.41ZM1129.71 49.1598C1132.1 49.1598 1133.63 47.4712 1133.63 44.9411C1133.63 42.4055 1132.1 40.7116 1129.71 40.7116C1127.31 40.7116 1125.79 42.4055 1125.79 44.9411C1125.79 47.4712 1127.31 49.1598 1129.71 49.1598ZM1129.72 47.6151C1128.39 47.6151 1127.74 46.4325 1127.74 44.9357C1127.74 43.4389 1128.39 42.2404 1129.72 42.2404C1131.02 42.2404 1131.67 43.4389 1131.67 44.9357C1131.67 46.4325 1131.02 47.6151 1129.72 47.6151ZM1135.26 49H1137.19V44.0249C1137.19 43.0181 1137.86 42.3363 1138.69 42.3363C1139.51 42.3363 1140.07 42.8849 1140.07 43.7266V49H1141.96V43.897C1141.96 42.9755 1142.51 42.3363 1143.44 42.3363C1144.22 42.3363 1144.84 42.7944 1144.84 43.8065V49H1146.77V43.5082C1146.77 41.6811 1145.72 40.7116 1144.21 40.7116C1143.03 40.7116 1142.12 41.2976 1141.76 42.2085H1141.67C1141.36 41.2816 1140.56 40.7116 1139.46 40.7116C1138.36 40.7116 1137.54 41.2763 1137.2 42.2085H1137.11V40.8182H1135.26V49ZM1152.35 49.1598C1154.26 49.1598 1155.57 48.2276 1155.91 46.8054L1154.11 46.603C1153.85 47.2955 1153.21 47.6577 1152.37 47.6577C1151.13 47.6577 1150.3 46.8374 1150.29 45.4364H1155.99V44.8452C1155.99 41.9741 1154.26 40.7116 1152.25 40.7116C1149.9 40.7116 1148.37 42.4322 1148.37 44.957C1148.37 47.5245 1149.88 49.1598 1152.35 49.1598ZM1150.29 44.1367C1150.35 43.0927 1151.12 42.2138 1152.27 42.2138C1153.38 42.2138 1154.13 43.0234 1154.14 44.1367H1150.29ZM1161.64 49.1385C1163.43 48.9734 1164.56 47.8068 1164.69 46.2035H1162.85C1162.68 47.0824 1162.05 47.5884 1161.2 47.5884C1160 47.5884 1159.22 46.5817 1159.22 44.9091C1159.22 43.2578 1160.01 42.267 1161.2 42.267C1162.13 42.267 1162.7 42.8636 1162.85 43.652H1164.69C1164.56 41.8782 1163.17 40.7116 1161.18 40.7116C1158.78 40.7116 1157.27 42.4428 1157.27 44.9411C1157.27 47.2102 1158.51 48.8668 1160.6 49.1225L1160.4 50.0281C1161.16 50.108 1161.5 50.2891 1161.49 50.7418C1161.48 51.2106 1160.96 51.4183 1160.15 51.4183L1160.17 52.3665C1161.85 52.3665 1162.8 51.7006 1162.79 50.6939C1162.79 49.9162 1162.26 49.5114 1161.59 49.4102L1161.64 49.1385ZM1168.63 49.1651C1169.91 49.1651 1170.68 48.5632 1171.03 47.8761H1171.1V49H1172.95V43.5241C1172.95 41.3615 1171.19 40.7116 1169.63 40.7116C1167.9 40.7116 1166.58 41.4787 1166.16 42.9702L1167.96 43.2259C1168.15 42.6665 1168.69 42.1871 1169.64 42.1871C1170.53 42.1871 1171.02 42.6452 1171.02 43.4496V43.4815C1171.02 44.0355 1170.44 44.0621 1169 44.2166C1167.41 44.3871 1165.89 44.8612 1165.89 46.7042C1165.89 48.3129 1167.07 49.1651 1168.63 49.1651ZM1169.13 47.7482C1168.33 47.7482 1167.75 47.3807 1167.75 46.6722C1167.75 45.9318 1168.39 45.6229 1169.26 45.5004C1169.76 45.4311 1170.78 45.3033 1171.03 45.1009V46.065C1171.03 46.9759 1170.29 47.7482 1169.13 47.7482ZM1174.89 49H1176.82V44.19C1176.82 43.1513 1177.6 42.4162 1178.66 42.4162C1178.98 42.4162 1179.39 42.4748 1179.55 42.5281V40.7543C1179.38 40.7223 1179.08 40.701 1178.86 40.701C1177.92 40.701 1177.14 41.2337 1176.84 42.1818H1176.76V40.8182H1174.89V49ZM1186.91 49.1651C1188.19 49.1651 1188.96 48.5632 1189.31 47.8761H1189.38V49H1191.23V43.5241C1191.23 41.3615 1189.47 40.7116 1187.91 40.7116C1186.19 40.7116 1184.87 41.4787 1184.44 42.9702L1186.24 43.2259C1186.43 42.6665 1186.97 42.1871 1187.92 42.1871C1188.81 42.1871 1189.3 42.6452 1189.3 43.4496V43.4815C1189.3 44.0355 1188.72 44.0621 1187.28 44.2166C1185.69 44.3871 1184.17 44.8612 1184.17 46.7042C1184.17 48.3129 1185.35 49.1651 1186.91 49.1651ZM1187.41 47.7482C1186.61 47.7482 1186.03 47.3807 1186.03 46.6722C1186.03 45.9318 1186.68 45.6229 1187.54 45.5004C1188.05 45.4311 1189.06 45.3033 1189.31 45.1009V46.065C1189.31 46.9759 1188.57 47.7482 1187.41 47.7482ZM1196.73 52.2386C1198.94 52.2386 1200.57 51.2266 1200.57 49.1332V40.8182H1198.67V42.1712H1198.56C1198.27 41.5799 1197.65 40.7116 1196.21 40.7116C1194.32 40.7116 1192.83 42.1925 1192.83 44.8825C1192.83 47.5511 1194.32 48.8828 1196.21 48.8828C1197.61 48.8828 1198.26 48.1317 1198.56 47.5298H1198.66V49.0799C1198.66 50.2837 1197.86 50.7791 1196.76 50.7791C1195.6 50.7791 1195.09 50.2305 1194.85 49.7511L1193.12 50.1719C1193.47 51.3171 1194.64 52.2386 1196.73 52.2386ZM1196.74 47.37C1195.47 47.37 1194.8 46.3793 1194.8 44.8718C1194.8 43.3857 1195.46 42.2937 1196.74 42.2937C1197.98 42.2937 1198.67 43.3217 1198.67 44.8718C1198.67 46.4325 1197.97 47.37 1196.74 47.37ZM1206.11 49.1598C1208.51 49.1598 1210.03 47.4712 1210.03 44.9411C1210.03 42.4055 1208.51 40.7116 1206.11 40.7116C1203.72 40.7116 1202.19 42.4055 1202.19 44.9411C1202.19 47.4712 1203.72 49.1598 1206.11 49.1598ZM1206.12 47.6151C1204.8 47.6151 1204.15 46.4325 1204.15 44.9357C1204.15 43.4389 1204.8 42.2404 1206.12 42.2404C1207.43 42.2404 1208.08 43.4389 1208.08 44.9357C1208.08 46.4325 1207.43 47.6151 1206.12 47.6151ZM1211.67 49H1213.6V44.19C1213.6 43.1513 1214.38 42.4162 1215.44 42.4162C1215.77 42.4162 1216.17 42.4748 1216.34 42.5281V40.7543C1216.16 40.7223 1215.86 40.701 1215.64 40.701C1214.71 40.701 1213.92 41.2337 1213.63 42.1818H1213.54V40.8182H1211.67V49ZM1219.81 49.1651C1221.09 49.1651 1221.86 48.5632 1222.21 47.8761H1222.28V49H1224.13V43.5241C1224.13 41.3615 1222.37 40.7116 1220.81 40.7116C1219.09 40.7116 1217.77 41.4787 1217.34 42.9702L1219.14 43.2259C1219.33 42.6665 1219.87 42.1871 1220.82 42.1871C1221.71 42.1871 1222.2 42.6452 1222.2 43.4496V43.4815C1222.2 44.0355 1221.62 44.0621 1220.18 44.2166C1218.59 44.3871 1217.07 44.8612 1217.07 46.7042C1217.07 48.3129 1218.25 49.1651 1219.81 49.1651ZM1220.31 47.7482C1219.51 47.7482 1218.93 47.3807 1218.93 46.6722C1218.93 45.9318 1219.58 45.6229 1220.44 45.5004C1220.95 45.4311 1221.96 45.3033 1222.21 45.1009V46.065C1222.21 46.9759 1221.47 47.7482 1220.31 47.7482Z" fill="white"/>
<path fill-rule="evenodd" clip-rule="evenodd" d="M982 49.4866C983.307 48.2157 985.077 47.4341 987.019 47.4341C988.943 47.4341 990.692 48.1999 992 49.4474C990.692 50.7182 988.923 51.4999 986.981 51.4999C985.058 51.4999 983.307 50.7341 982 49.4866Z" stroke="#99F3F5" stroke-linecap="round" stroke-linejoin="round"/>
<path d="M980.313 47.3542C979.804 46.3425 979.5 45.21 979.5 44C979.5 39.855 982.855 36.5 987 36.5C991.145 36.5 994.5 39.855 994.5 44C994.5 45.2083 994.198 46.3417 993.686 47.3525" stroke="#99F3F5" stroke-linecap="round" stroke-linejoin="round"/>
<path d="M988.768 40.5657C989.744 41.542 989.744 43.125 988.768 44.1013C987.791 45.0776 986.209 45.0776 985.232 44.1013C984.256 43.125 984.256 41.542 985.232 40.5657C986.209 39.5894 987.791 39.5894 988.768 40.5657" stroke="#99F3F5" stroke-linecap="round" stroke-linejoin="round"/>
<path d="M1291.2 49H1292.84V45.1648H1295.08C1297.61 45.1648 1298.86 43.636 1298.86 41.6225C1298.86 39.6143 1297.62 38.0909 1295.09 38.0909H1291.2V49ZM1292.84 43.7692V39.5025H1294.91C1296.54 39.5025 1297.21 40.3867 1297.21 41.6225C1297.21 42.8583 1296.54 43.7692 1294.93 43.7692H1292.84ZM1300.26 39.5078H1303.65V49H1305.29V39.5078H1308.7V38.0909H1300.26V39.5078Z" fill="white"/>
<path d="M1323.85 46.6432C1323.46 47.2699 1322.54 47.2699 1322.15 46.6432L1318.96 41.53C1318.54 40.864 1319.02 40 1319.8 40L1326.2 40C1326.98 40 1327.46 40.864 1327.04 41.53L1323.85 46.6432Z" fill="#99F3F5"/>
</g>
<defs>
<filter id="filter0_b" x="-30" y="-30" width="1500" height="148" filterUnits="userSpaceOnUse" color-interpolation-filters="sRGB">
<feFlood flood-opacity="0" result="BackgroundImageFix"/>
<feGaussianBlur in="BackgroundImage" stdDeviation="15"/>
<feComposite in2="SourceAlpha" operator="in" result="effect1_backgroundBlur"/>
<feBlend mode="normal" in="SourceGraphic" in2="effect1_backgroundBlur" result="shape"/>
</filter>
<linearGradient id="paint0_linear" x1="135.589" y1="52.9665" x2="119.531" y2="53.2076" gradientUnits="userSpaceOnUse">
<stop stop-color="white"/>
<stop offset="1" stop-color="white"/>
</linearGradient>
<linearGradient id="paint1_linear" x1="136.861" y1="42.1695" x2="115.881" y2="42.4841" gradientUnits="userSpaceOnUse">
<stop stop-color="white"/>
<stop offset="1" stop-color="white"/>
</linearGradient>
</defs>
</svg>
